<mxfile host="app.diagrams.net" modified="2023-10-17T04:50:40.746Z" agent="Mozilla/5.0 (Windows NT 10.0; Win64; x64; rv:109.0) Gecko/20100101 Firefox/118.0" etag="XPbX9dKSJcMIgu6j0G_q" version="22.0.4" type="github">
  <diagram name="Page-1" id="uSIP-8fyCLPpVjQGDKZk">
    <mxGraphModel dx="1035" dy="553" grid="1" gridSize="10" guides="1" tooltips="1" connect="1" arrows="1" fold="1" page="1" pageScale="1" pageWidth="850" pageHeight="1100" math="0" shadow="0">
      <root>
        <mxCell id="0" />
        <mxCell id="1" parent="0" />
        <mxCell id="fPuoYm2NFhe7NL5C9c1N-7" style="edgeStyle=orthogonalEdgeStyle;rounded=0;orthogonalLoop=1;jettySize=auto;html=1;entryX=0.5;entryY=0;entryDx=0;entryDy=0;" edge="1" parent="1" source="fPuoYm2NFhe7NL5C9c1N-1" target="fPuoYm2NFhe7NL5C9c1N-3">
          <mxGeometry relative="1" as="geometry" />
        </mxCell>
        <mxCell id="fPuoYm2NFhe7NL5C9c1N-1" value="START" style="html=1;dashed=0;whiteSpace=wrap;shape=mxgraph.dfd.start" vertex="1" parent="1">
          <mxGeometry x="350" y="90" width="80" height="30" as="geometry" />
        </mxCell>
        <mxCell id="fPuoYm2NFhe7NL5C9c1N-3" value="&lt;div&gt;LA&lt;/div&gt;&lt;div&gt;a&lt;/div&gt;&lt;div&gt;t&lt;br&gt;&lt;/div&gt;" style="shape=parallelogram;html=1;strokeWidth=2;perimeter=parallelogramPerimeter;whiteSpace=wrap;rounded=1;arcSize=12;size=0.23;" vertex="1" parent="1">
          <mxGeometry x="340" y="180" width="100" height="60" as="geometry" />
        </mxCell>
        <mxCell id="fPuoYm2NFhe7NL5C9c1N-24" style="edgeStyle=orthogonalEdgeStyle;rounded=0;orthogonalLoop=1;jettySize=auto;html=1;exitX=0.5;exitY=1;exitDx=0;exitDy=0;exitPerimeter=0;" edge="1" parent="1" source="fPuoYm2NFhe7NL5C9c1N-4" target="fPuoYm2NFhe7NL5C9c1N-5">
          <mxGeometry relative="1" as="geometry" />
        </mxCell>
        <mxCell id="fPuoYm2NFhe7NL5C9c1N-4" value="La=1/2 x a x t" style="strokeWidth=2;html=1;shape=mxgraph.flowchart.decision;whiteSpace=wrap;" vertex="1" parent="1">
          <mxGeometry x="340" y="300" width="100" height="100" as="geometry" />
        </mxCell>
        <mxCell id="fPuoYm2NFhe7NL5C9c1N-5" value="1/2x a x t" style="html=1;dashed=0;whiteSpace=wrap;" vertex="1" parent="1">
          <mxGeometry x="340" y="490" width="100" height="50" as="geometry" />
        </mxCell>
        <mxCell id="fPuoYm2NFhe7NL5C9c1N-19" style="edgeStyle=orthogonalEdgeStyle;rounded=0;orthogonalLoop=1;jettySize=auto;html=1;exitX=0.5;exitY=1;exitDx=0;exitDy=0;entryX=0.5;entryY=0;entryDx=0;entryDy=0;entryPerimeter=0;" edge="1" parent="1" source="fPuoYm2NFhe7NL5C9c1N-3" target="fPuoYm2NFhe7NL5C9c1N-4">
          <mxGeometry relative="1" as="geometry" />
        </mxCell>
        <mxCell id="fPuoYm2NFhe7NL5C9c1N-25" style="edgeStyle=orthogonalEdgeStyle;rounded=0;orthogonalLoop=1;jettySize=auto;html=1;exitX=0.5;exitY=1;exitDx=0;exitDy=0;entryX=0.5;entryY=0.5;entryDx=0;entryDy=-20;entryPerimeter=0;" edge="1" parent="1" source="fPuoYm2NFhe7NL5C9c1N-5">
          <mxGeometry relative="1" as="geometry">
            <mxPoint x="390" y="600" as="targetPoint" />
          </mxGeometry>
        </mxCell>
        <mxCell id="fPuoYm2NFhe7NL5C9c1N-28" style="edgeStyle=orthogonalEdgeStyle;rounded=0;orthogonalLoop=1;jettySize=auto;html=1;exitX=0.5;exitY=1;exitDx=0;exitDy=0;" edge="1" parent="1" source="fPuoYm2NFhe7NL5C9c1N-26" target="fPuoYm2NFhe7NL5C9c1N-27">
          <mxGeometry relative="1" as="geometry" />
        </mxCell>
        <mxCell id="fPuoYm2NFhe7NL5C9c1N-26" value="LA" style="shape=parallelogram;html=1;strokeWidth=2;perimeter=parallelogramPerimeter;whiteSpace=wrap;rounded=1;arcSize=12;size=0.23;" vertex="1" parent="1">
          <mxGeometry x="340" y="600" width="100" height="60" as="geometry" />
        </mxCell>
        <mxCell id="fPuoYm2NFhe7NL5C9c1N-27" value="END" style="html=1;dashed=0;whiteSpace=wrap;shape=mxgraph.dfd.start" vertex="1" parent="1">
          <mxGeometry x="350" y="740" width="80" height="30" as="geometry" />
        </mxCell>
      </root>
    </mxGraphModel>
  </diagram>
</mxfile>
